<svg xmlns="http://www.w3.org/2000/svg" viewBox="0 0 254 83" style="enable-background:new 0 0 254 83" xml:space="preserve"><path d="m43.6 73.9.9-7c1-.1 1.9-.3 2.8-.5l-1.4-5.5c-1.2.3-2.4.4-3.6.4-5.9 0-11.1-3.4-13.7-8.3l-5.1 2.5 1.2 2.1-7.5 8.2c-3.8-1.9-8.5-.3-10.4 3.5s-.3 8.5 3.5 10.4 8.5.3 10.4-3.5c1-2 1-4.1.4-6l9-7.1c2.1 1.5 4.4 2.6 6.9 3.3l.5 7.6c-1.2.9-1.9 2.4-1.9 4 0 2.8 2.3 5 5 5 2.8 0 5-2.3 5-5 0-1.7-.8-3.2-2-4.1z" style="fill:#d27357"/><path d="M77.4 63.3c-2.4-1.2-5.2-1-7.3.2l-8.7-8.6c.3-.7.6-1.4.9-2.2L56.9 51c-1.7 4.9-5.8 8.7-10.9 9.9l1.4 5.5c.7-.2 1.3-.4 2-.6l3 4.7c-.6.8-.9 1.8-.9 2.9 0 2.8 2.3 5 5 5 2.8 0 5-2.3 5-5 0-2.6-2-4.8-4.5-5l-2.3-5.3c.9-.6 1.7-1.3 2.4-2l9.5 7.2c-.9 3.5.7 7.2 4.1 8.8 3.8 1.9 8.5.3 10.4-3.5 1.7-3.8.1-8.4-3.7-10.3z" style="fill:#87b44a"/><path d="M81.8 21.9c-3.8-1.9-8.5-.3-10.4 3.5-.6 1.3-.9 2.7-.8 4L59 33.2c-.9-1.1-1.8-2.2-2.9-3.1l2.6-4.6c2.6-.2 4.7-2.4 4.7-5 0-2.8-2.3-5-5-5-2.8 0-5 2.3-5 5 0 .8.2 1.5.5 2.2l-3 4c-.5-.2-.9-.4-1.4-.6l-1.9 5.3c5.9 2.2 10.1 7.8 10.1 14.4 0 1.8-.3 3.4-.8 5l5.3 1.9c.2-.5.3-1.1.5-1.6l6.3-.2c.3.5.7.9 1.1 1.3.2.2.4.3.6.5.8.5 1.7.7 2.6.7 2.8 0 5-2.3 5-5 0-2.8-2.3-5-5-5-1.7 0-3.3.9-4.2 2.2l-5.9-.5c-.1-1.7-.4-3.4-.8-4.9l10.9-5.3c.5.4 1 .7 1.5 1 3.8 1.9 8.5.3 10.4-3.5 2-3.9.4-8.6-3.4-10.5z" style="fill:#69a9df"/><path d="m31.3 35.3-4-4c-.6.6-1.2 1.3-1.7 2l-10.1-4c.2-3-1.4-6-4.3-7.4C7.4 20 2.7 21.6.8 25.4s-.3 8.5 3.5 10.4c2.3 1.2 5 1 7.1-.1.4-.2.7-.4 1-.6.2-.1.3-.2.5-.4l9.2 5.5c-.6 1.9-.9 3.9-.9 5.9v.1l-6.5 1.7c-.9-1.1-2.3-1.8-3.8-1.8-2.8 0-5 2.3-5 5 0 2.8 2.3 5 5 5 2.1 0 3.8-1.2 4.6-3l6.8-.4c.3 1 .7 1.9 1.2 2.9l5.1-2.5c-1.1-2.1-1.7-4.5-1.7-7.1 0-4.2 1.7-8 4.4-10.7z" style="fill:#c5225f"/><path d="M48.3.8c-3.8-1.9-8.5-.3-10.4 3.5s-.3 8.5 3.5 10.4c.1 0 .1.1.2.1l-1 10.3c-1.7.1-3.3.5-4.9 1L33 21.7c.4-.7.5-1.5.5-2.3 0-2.8-2.3-5-5-5s-5 2.3-5 5 2.1 4.9 4.8 5l1.9 4.4c-1 .7-2 1.5-2.9 2.4l4 4c2.8-2.9 6.7-4.7 11-4.7 1.9 0 3.6.3 5.3.9l1.9-5.3c-.4-.2-.9-.3-1.3-.4l-.6-10.9c1.8-.7 3.3-2 4.2-3.8 1.9-3.7.3-8.3-3.5-10.2z" style="fill:#d68224"/><path d="M121.9 51.4c.6-.2 1.2-.1 1.7.3s.8.9.8 1.6v2.6c0 .8-.2 1.6-.7 2.2s-1.1 1-1.9 1.2c-2.2.4-4.5.6-6.9.6-5.4 0-9.7-1.5-12.7-4.6s-4.6-7.5-4.6-13.4c0-5.7 1.5-10.1 4.4-13.3s7.1-4.7 12.4-4.7c2.4 0 4.7.2 6.9.6.8.1 1.4.5 1.9 1.2s.7 1.4.7 2.2v2.7c0 .7-.3 1.2-.8 1.6-.5.4-1.1.5-1.7.3-2-.6-3.9-.9-5.8-.9-2.6 0-4.6.9-6 2.6-1.4 1.7-2.2 4.3-2.2 7.7 0 3.3.8 5.9 2.3 7.7 1.6 1.8 3.7 2.7 6.3 2.7 2.1-.1 4-.4 5.9-.9zm11.2-22.8c3-3.2 7.1-4.8 12.3-4.8s9.3 1.6 12.3 4.8 4.5 7.6 4.5 13.2-1.5 10-4.5 13.2-7.1 4.8-12.3 4.8-9.3-1.6-12.3-4.8c-3-3.2-4.5-7.6-4.5-13.2s1.5-10 4.5-13.2zm5.3 13.2c0 6.7 2.3 10.1 6.9 10.1 4.6 0 6.9-3.4 6.9-10.1s-2.2-10.1-6.8-10.1c-4.7 0-7 3.4-7 10.1zm49.8 9.6c1.5 0 2.7 1.2 2.7 2.7v2.4c0 1.5-1.2 2.7-2.7 2.7h-18.5c-1.5 0-2.7-1.2-2.7-2.7V27c0-1.5 1.2-2.7 2.7-2.7h4.4c1.5 0 2.7 1.2 2.7 2.7v23.9c0 .3.1.4.4.4h11v.1zM217 24.3c1.5 0 2.7 1.2 2.7 2.7v2.2c0 1.5-1.2 2.7-2.7 2.7h-10.3c-.3 0-.4.1-.4.4v4.9c0 .3.1.4.4.4h9.3c1.5 0 2.7 1.2 2.7 2.7V42c0 1.5-1.2 2.7-2.7 2.7h-9.3c-.3 0-.4.1-.4.4V51c0 .3.1.4.4.4H217c1.5 0 2.7 1.2 2.7 2.7v2.2c0 1.5-1.2 2.7-2.7 2.7h-17.5c-1.5 0-2.7-1.2-2.7-2.7V27c0-1.5 1.2-2.7 2.7-2.7H217zm35 0c.7 0 1.2.3 1.6.8.4.5.5 1.1.3 1.8l-9.4 29.8c-.3.8-.7 1.4-1.4 1.9s-1.4.7-2.2.7h-4.6c-.8 0-1.6-.2-2.2-.7-.7-.5-1.1-1.1-1.3-1.9l-9.4-29.8c-.2-.6-.1-1.2.3-1.8.4-.5.9-.8 1.6-.8h4.7c.8 0 1.5.2 2.1.7s1 1.1 1.2 1.9l5.2 23.2h.1l5.5-23.2c.2-.8.6-1.4 1.2-1.9s1.3-.7 2.1-.7h4.6z" style="fill:#222221"/></svg>